<svg width="110" height="60" viewBox="0 0 110 60" fill="none" xmlns="http://www.w3.org/2000/svg">
<rect width="110" height="60" rx="20" fill="#F0F9FF"/>
<path d="M44.5 30.3752C44.4997 30.206 44.5369 30.0389 44.609 29.8858C44.6811 29.7328 44.7863 29.5977 44.917 29.4902L49.336 25.0802C49.5469 24.8695 49.8329 24.7512 50.131 24.7512C50.4291 24.7512 50.7151 24.8695 50.926 25.0802C51.0302 25.1844 51.1129 25.3081 51.1693 25.4443C51.2257 25.5804 51.2548 25.7263 51.2548 25.8737C51.2548 26.0211 51.2257 26.167 51.1693 26.3032C51.1129 26.4393 51.0302 26.563 50.926 26.6672L48.349 29.2502L64.375 29.2502C64.6734 29.2502 64.9595 29.3687 65.1705 29.5797C65.3815 29.7907 65.5 30.0768 65.5 30.3752C65.5 30.6736 65.3815 30.9597 65.1705 31.1707C64.9595 31.3817 64.6734 31.5002 64.375 31.5002L48.334 31.5002L50.9335 34.0832C51.0379 34.1874 51.1208 34.3112 51.1774 34.4475C51.2339 34.5838 51.263 34.7299 51.263 34.8775C51.263 35.025 51.2339 35.1711 51.1774 35.3074C51.1208 35.4437 51.0379 35.5675 50.9335 35.6717C50.829 35.7762 50.705 35.8592 50.5684 35.9158C50.4319 35.9723 50.2855 36.0015 50.1378 36.0015C49.99 36.0015 49.8436 35.9723 49.7071 35.9158C49.5705 35.8592 49.4465 35.7762 49.342 35.6717L44.83 31.1657C44.7247 31.0629 44.6412 30.9399 44.5845 30.8041C44.5278 30.6682 44.4991 30.5224 44.5 30.3752Z" fill="current"/>
</svg>
