<svg width="110" height="60" viewBox="0 0 110 60" fill="none" xmlns="http://www.w3.org/2000/svg">
<rect width="110" height="60" rx="20" fill="#F0F9FF"/>
<path d="M65.5 30.375C65.5003 30.2058 65.4631 30.0387 65.391 29.8856C65.3189 29.7326 65.2137 29.5974 65.083 29.49L60.664 25.08C60.4531 24.8693 60.1671 24.751 59.869 24.751C59.5709 24.751 59.2849 24.8693 59.074 25.08C58.9698 25.1842 58.8871 25.3079 58.8307 25.444C58.7743 25.5802 58.7452 25.7261 58.7452 25.8735C58.7452 26.0209 58.7743 26.1668 58.8307 26.3029C58.8871 26.4391 58.9698 26.5628 59.074 26.667L61.651 29.25L45.625 29.25C45.3266 29.25 45.0405 29.3685 44.8295 29.5795C44.6185 29.7905 44.5 30.0766 44.5 30.375C44.5 30.6734 44.6185 30.9595 44.8295 31.1705C45.0405 31.3815 45.3266 31.5 45.625 31.5L61.666 31.5L59.0665 34.083C58.9621 34.1872 58.8792 34.311 58.8226 34.4473C58.7661 34.5836 58.737 34.7297 58.737 34.8772C58.737 35.0248 58.7661 35.1709 58.8226 35.3072C58.8792 35.4435 58.9621 35.5673 59.0665 35.6715C59.171 35.776 59.295 35.859 59.4316 35.9155C59.5681 35.9721 59.7145 36.0013 59.8622 36.0013C60.01 36.0013 60.1564 35.9721 60.2929 35.9155C60.4295 35.859 60.5535 35.776 60.658 35.6715L65.17 31.1655C65.2753 31.0627 65.3588 30.9397 65.4155 30.8038C65.4722 30.668 65.5009 30.5222 65.5 30.375Z" fill="current" />
</svg>
